<svg width="16" height="16" viewBox="0 0 16 16" fill="none" xmlns="http://www.w3.org/2000/svg">
<g id="map-pin">
<path id="Subtract" fill-rule="evenodd" clip-rule="evenodd" d="M8.00002 14.6666C8.00002 14.6666 13.3334 10.6666 13.3334 6.66665C13.3334 5.25216 12.7715 3.8956 11.7713 2.89541C10.7711 1.89522 9.41451 1.33331 8.00002 1.33331C6.58553 1.33331 5.22898 1.89522 4.22878 2.89541C3.22859 3.8956 2.66669 5.25216 2.66669 6.66665C2.66669 10.6666 8.00002 14.6666 8.00002 14.6666ZM10 6.66665C10 7.77122 9.10459 8.66665 8.00002 8.66665C6.89545 8.66665 6.00002 7.77122 6.00002 6.66665C6.00002 5.56208 6.89545 4.66665 8.00002 4.66665C9.10459 4.66665 10 5.56208 10 6.66665Z" fill="#FF5C69"/>
</g>
</svg>
