<svg width="13" height="13" viewBox="0 0 13 13" fill="none" xmlns="http://www.w3.org/2000/svg">
<g id="Frame 24">
<path id="Vector" d="M7.95022 0.437244L7.80761 0.374781C7.33505 0.167795 6.7854 0.385902 6.57992 0.861936L5.5177 3.32283C5.31223 3.79886 5.52875 4.35256 6.0013 4.55954L6.14391 4.62201C6.61647 4.82899 7.16613 4.61089 7.3716 4.13485L8.43382 1.67396C8.63929 1.19793 8.42278 0.64423 7.95022 0.437244Z" fill="white"/>
<path id="Vector_2" d="M11.6714 11.3456C11.437 12.2855 10.869 12.7963 9.96757 12.878C7.84909 13.0687 5.48271 13.0358 2.86842 12.7793C2.11343 12.5909 1.66833 12.2219 1.53311 11.6725C1.07561 9.81091 0.629374 7.95384 0.194411 6.1013C-0.0253245 5.15119 -0.309291 4.43606 0.914467 4.11254C1.41704 3.98087 2.55516 3.96384 4.32882 4.06146C4.437 4.066 4.52376 4.11368 4.58912 4.20449C6.05966 6.21368 7.13467 5.45768 8.59506 4.11935C8.67845 4.04216 8.77649 4.00357 8.88917 4.00357C9.96419 4.00698 12.2799 3.68346 12.9289 4.7153C12.9943 4.81519 13.0146 4.92416 12.9898 5.04222L11.6714 11.3456ZM7.10807 7.44483C7.10727 7.38714 7.0952 7.33018 7.07255 7.2772C7.04989 7.22421 7.0171 7.17624 6.97605 7.13602C6.93499 7.0958 6.88647 7.06412 6.83326 7.04279C6.78005 7.02145 6.72319 7.01089 6.66592 7.0117L6.32114 7.01657C6.2055 7.0182 6.09524 7.06604 6.01462 7.14956C5.93399 7.23307 5.8896 7.34544 5.8912 7.46193L5.93076 10.3154C5.93155 10.3731 5.94362 10.43 5.96628 10.483C5.98893 10.536 6.02172 10.584 6.06277 10.6242C6.10383 10.6644 6.15235 10.6961 6.20556 10.7174C6.25877 10.7388 6.31563 10.7493 6.3729 10.7485L6.71768 10.7436C6.83332 10.742 6.94358 10.6942 7.0242 10.6107C7.10483 10.5271 7.14922 10.4148 7.14762 10.2983L7.10807 7.44483ZM4.02457 7.71546C4.02457 7.54656 3.95797 7.38459 3.83941 7.26516C3.72086 7.14574 3.56007 7.07865 3.39241 7.07865H3.27071C3.18769 7.07865 3.10549 7.09512 3.02879 7.12712C2.95209 7.15912 2.8824 7.20603 2.8237 7.26516C2.765 7.3243 2.71843 7.3945 2.68667 7.47176C2.6549 7.54902 2.63854 7.63183 2.63854 7.71546V10.1673C2.63854 10.251 2.6549 10.3338 2.68667 10.411C2.71843 10.4883 2.765 10.5585 2.8237 10.6176C2.8824 10.6768 2.95209 10.7237 3.02879 10.7557C3.10549 10.7877 3.18769 10.8042 3.27071 10.8042H3.39241C3.56007 10.8042 3.72086 10.7371 3.83941 10.6176C3.95797 10.4982 4.02457 10.3362 4.02457 10.1673V7.71546ZM10.1876 7.54382C10.189 7.49152 10.1801 7.43946 10.1615 7.39061C10.1429 7.34176 10.1149 7.29708 10.0791 7.25913C10.0434 7.22117 10.0006 7.19068 9.95311 7.16939C9.90566 7.14811 9.85452 7.13645 9.8026 7.13507L9.44436 7.12564C9.39244 7.12427 9.34075 7.13322 9.29226 7.15197C9.24377 7.17072 9.19942 7.19891 9.16175 7.23493C9.12407 7.27095 9.09381 7.31409 9.07268 7.36189C9.05156 7.40969 9.03999 7.46121 9.03863 7.51352L8.96324 10.4139C8.96188 10.4662 8.97075 10.5183 8.98937 10.5671C9.00798 10.616 9.03596 10.6606 9.07171 10.6986C9.10746 10.7366 9.15028 10.767 9.19773 10.7883C9.24518 10.8096 9.29633 10.8213 9.34825 10.8226L9.70649 10.8321C9.75841 10.8334 9.81009 10.8245 9.85858 10.8057C9.90707 10.787 9.95142 10.7588 9.9891 10.7228C10.0268 10.6868 10.057 10.6436 10.0782 10.5958C10.0993 10.548 10.1109 10.4965 10.1122 10.4442L10.1876 7.54382Z" fill="white"/>
</g>
</svg>
