<svg width="18" height="19" viewBox="0 0 18 19" fill="none" xmlns="http://www.w3.org/2000/svg">
<path d="M6.60938 17V12.6914H7.74609V16.1055H8.98047V12.6914H10.1172V16.1055H11.3516V12.6914H12.4883V17H6.60938ZM17.082 12.6914V13.5859H15.793V17H14.6562V13.5859H13.3672V12.6914H17.082Z" fill="black"/>
<path d="M0.304688 7.14844V6.69922H1.04688V5.98438H0.304688V5.53516H1.04688V2.48047H3.21094C4.3125 2.48047 5.04688 3.20703 5.04688 4.23047V4.23828C5.04688 5.25781 4.27734 5.98438 3.15234 5.98438H2.19531V6.69922H3.66016V7.14844H2.19531V7.88281H1.04688V7.14844H0.304688ZM2.19531 5.10547H2.86719C3.53516 5.10547 3.88672 4.78516 3.88672 4.25V4.24219C3.88672 3.71484 3.53906 3.39062 2.87109 3.39062H2.19531V5.10547Z" fill="black"/>
<path d="M2 14L13 3" stroke="black" stroke-width="1.5" stroke-linecap="round"/>
</svg>
