<svg width="22" height="22" viewBox="0 0 22 22" fill="none" xmlns="http://www.w3.org/2000/svg">
<g id="Vector 2" clip-path="url(#clip0_108_344)">
<path id="Vector" d="M16.5612 1.50419C18.114 2.43183 19.3643 3.65473 20.3121 5.17288C21.9254 7.7564 22.4153 10.9414 21.6385 13.905C20.9777 16.4256 19.3872 18.6511 17.2515 20.093C12.2133 23.4944 5.22119 22.2493 1.80793 17.1274L1.81501 17.105C1.8167 17.0997 1.81603 17.0947 1.81299 17.0901C1.75934 17.0057 1.70508 16.9217 1.6502 16.838C1.60515 16.7693 1.57529 16.6942 1.53092 16.6242C1.41419 16.4403 1.30436 16.2089 1.22103 16.0512C1.08894 15.8016 0.97777 15.538 0.859344 15.2811C0.808846 15.1716 0.765887 15.0668 0.730459 14.9668C0.586504 14.56 0.463748 14.1677 0.362193 13.7898C0.332052 13.6775 0.302868 13.5463 0.274639 13.3964C0.255576 13.2952 0.2215 13.1626 0.204967 13.0435C0.181687 12.8765 0.145248 12.7228 0.127704 12.5603C0.0909276 12.2179 0.0519589 11.8784 0.0369447 11.5339C0.036045 11.5116 0.0285098 11.4876 0.0143392 11.4617C0.0116401 11.4567 0.0105716 11.4514 0.0111339 11.4457C0.0142829 11.4158 0.0105717 11.3871 0 11.3594L0.00236175 10.8746C0.023955 10.764 0.0359324 10.6526 0.0382942 10.5402C0.0421744 10.3618 0.061743 10.2133 0.0767572 10.0474C0.0999248 9.79224 0.123205 9.59808 0.146598 9.46492C0.169541 9.33448 0.185567 9.23636 0.194676 9.17052C0.207385 9.07916 0.238482 8.92376 0.287966 8.70432C0.305679 8.62584 0.322886 8.51176 0.346335 8.41996C0.483654 7.88192 0.649821 7.3442 0.865755 6.83268C1.00982 6.49156 1.15945 6.174 1.31466 5.88C1.4648 5.59548 1.64547 5.33428 1.814 5.04516C1.88772 4.91864 1.98016 4.79692 2.07143 4.66036C2.1514 4.54072 2.27949 4.37328 2.45572 4.15804C2.54513 4.04892 2.61801 3.93721 2.7194 3.83317C2.76832 3.78311 2.81353 3.72266 2.85739 3.67703C2.96592 3.56363 3.07389 3.44966 3.18129 3.33512C3.60337 2.88476 4.08485 2.48598 4.57879 2.11921C4.64086 2.07307 4.72285 2.02318 4.79199 1.97056C4.82586 1.94491 4.86243 1.92028 4.90168 1.89666C4.97318 1.85359 5.03576 1.80284 5.10966 1.7613C5.22606 1.69626 5.33893 1.60771 5.45616 1.5396C5.56616 1.47575 5.67647 1.4102 5.79052 1.35452C5.87604 1.31263 5.94338 1.25882 6.0434 1.2137C6.16876 1.157 6.28988 1.08344 6.42349 1.03407C6.47696 1.01414 6.53514 0.977536 6.59387 0.95574C6.67115 0.926964 6.74284 0.889164 6.81721 0.853748C6.85477 0.835924 6.91055 0.813676 6.98457 0.787C7.06066 0.759588 7.13334 0.721616 7.20909 0.698972C7.37629 0.64874 7.53433 0.577568 7.70373 0.533976C7.78014 0.514224 7.84508 0.479828 7.92436 0.465356C7.95999 0.458888 7.99319 0.440496 8.02426 0.432836C8.08091 0.418872 8.13796 0.406216 8.19531 0.394864C8.21284 0.391288 8.22215 0.377666 8.23865 0.374772C8.28331 0.366826 8.32747 0.356496 8.37108 0.343782C8.41091 0.332034 8.46234 0.333226 8.50606 0.308876C8.53321 0.293892 8.54991 0.305641 8.57505 0.29832C8.72496 0.254276 8.87763 0.225102 9.03304 0.2108C9.07575 0.206883 9.10863 0.181853 9.14033 0.17368C9.209 0.155972 9.27834 0.16721 9.33959 0.156823C9.63242 0.107444 9.90962 0.0541492 10.2087 0.0594276C10.2296 0.059768 10.2628 0.044614 10.2894 0.0432516C10.4454 0.0355895 10.6097 0.00800537 10.7529 0.00408909C11.1031 -0.00544615 11.4361 -0.000508314 11.7643 0.0427408C11.8298 0.051368 11.8988 0.0557952 11.9711 0.056022C12.1828 0.0565332 12.3729 0.104209 12.5732 0.126344C12.6314 0.132815 12.6786 0.158015 12.7378 0.159207C12.8129 0.16074 12.8777 0.187302 12.9465 0.194794C13.0641 0.207564 13.1736 0.234468 13.2891 0.257624C13.3364 0.26716 13.3974 0.289125 13.4546 0.295255C13.5044 0.300874 13.5474 0.320285 13.6007 0.32965C13.6511 0.338504 13.7394 0.360639 13.8655 0.396056C13.9316 0.41456 14.0185 0.44112 14.1264 0.475744C14.3868 0.559176 14.6476 0.635968 14.8985 0.73524C14.9052 0.737848 14.9123 0.73904 14.9197 0.738812C14.9253 0.738588 14.9305 0.739724 14.9356 0.74222C15.0125 0.779112 15.0907 0.813336 15.1701 0.844892C15.3096 0.900516 15.4581 0.968852 15.6154 1.0499C15.6474 1.06636 15.6852 1.08356 15.7288 1.10149C15.8228 1.13998 15.9086 1.18884 16.0008 1.23005C16.1762 1.30854 16.342 1.41871 16.5101 1.51304C16.5148 1.51577 16.5197 1.51633 16.5249 1.51474L16.5612 1.50419ZM6.26709 18.2043C6.26686 18.2131 6.26835 18.2212 6.27149 18.2288C6.27373 18.2342 6.27742 18.2379 6.28261 18.2399C6.33223 18.2601 6.38189 18.2799 6.43158 18.2992C6.60279 18.3656 6.78684 18.4109 6.96347 18.4614C7.01105 18.4752 7.06302 18.4815 7.11346 18.4948C7.19207 18.5154 7.27049 18.5158 7.34961 18.536C7.39062 18.5464 7.43195 18.5362 7.47344 18.546C7.54533 18.5629 7.61667 18.5825 7.6914 18.5838C7.94259 18.5881 8.21386 18.607 8.46254 18.5713C8.58063 18.5544 8.72316 18.5483 8.83198 18.5001C9.02141 18.4162 9.15114 18.3145 9.33841 18.1703C9.57507 17.9877 9.75189 17.7768 9.8617 17.4864C9.87639 17.4476 9.87368 17.3972 9.87788 17.3547C9.89678 17.1583 9.85191 16.9468 9.85176 16.754C9.8514 16.2797 9.85101 15.8054 9.85058 15.331L9.85176 15.2513C9.85176 15.2448 9.84854 15.2416 9.84213 15.2416L4.12818 15.2409V15.1985C4.12818 15.1927 4.13015 15.1878 4.13407 15.1837C4.19257 15.123 4.24722 15.0589 4.29805 14.9916C4.71051 14.4457 5.12349 13.8992 5.50762 13.3344C5.78258 12.9299 5.99826 12.6089 6.15458 12.3713C6.24215 12.2382 6.35922 12.0444 6.46753 11.8845C6.53785 11.7806 6.5947 11.6796 6.65559 11.5742C6.66588 11.5564 6.68615 11.5404 6.69507 11.524C6.75581 11.4127 6.83697 11.3062 6.89382 11.2038C6.99423 11.0228 7.09885 10.8443 7.20759 10.6682C7.27387 10.561 7.33834 10.4452 7.40579 10.3347C7.5374 10.1188 7.64956 9.8952 7.77861 9.67896C7.84575 9.56624 7.90597 9.44092 7.97331 9.32344C8.21185 8.90644 8.43386 8.47972 8.65535 8.05336C8.74441 7.88172 8.83465 7.68764 8.96135 7.43936C9.00574 7.35236 9.05787 7.22808 9.10949 7.12676C9.21014 6.92956 9.31016 6.73204 9.4096 6.5342C9.44484 6.46404 9.47438 6.37688 9.51335 6.3006C9.59939 6.13184 9.66837 5.966 9.74294 5.79556C9.77252 5.72792 9.82053 5.62524 9.887 5.48752C9.96125 5.3336 10.049 5.13956 10.1505 4.90536C10.3686 4.40204 10.5829 3.89714 10.7934 3.39064C10.8452 3.26582 10.8924 3.11701 10.9481 2.98147C10.9545 2.96592 10.9502 2.95309 10.9351 2.94299L10.994 2.78991C10.9943 2.78905 10.9949 2.78831 10.9956 2.78778C10.9963 2.78725 10.9972 2.78697 10.9981 2.78697C10.999 2.78697 10.9999 2.78725 11.0007 2.78778C11.0014 2.78831 11.002 2.78905 11.0022 2.78991C12.7667 7.22192 15.0022 11.4706 17.9414 15.2307C17.9422 15.2316 17.9427 15.2328 17.9429 15.2341C17.943 15.2353 17.9428 15.2366 17.9423 15.2377C17.9417 15.2388 17.9408 15.2398 17.9398 15.2405C17.9387 15.2412 17.9375 15.2416 17.9362 15.2416H12.1583C12.1527 15.2416 12.1499 15.2444 12.1499 15.2501C12.1495 15.9164 12.1494 16.5828 12.1497 17.2491C12.1499 17.4318 12.1771 17.5525 12.2722 17.6933C12.4708 17.9876 12.7523 18.219 13.0522 18.388C13.0497 18.3948 13.0493 18.4014 13.0513 18.408C13.0527 18.4133 13.0557 18.4174 13.0604 18.4202C13.1351 18.4679 13.2149 18.5036 13.2996 18.5272C13.3682 18.5464 13.4511 18.55 13.528 18.5629C13.5928 18.5737 13.65 18.5796 13.6997 18.5808C13.9437 18.5862 14.1739 18.6019 14.4271 18.5876C14.4742 18.5849 14.5179 18.5704 14.5569 18.5678C14.7037 18.5588 14.8489 18.5385 14.9926 18.5071C15.0191 18.5013 15.0483 18.505 15.0764 18.4977C15.3061 18.4374 15.532 18.3652 15.7543 18.2811C15.7804 18.2711 15.8019 18.2433 15.842 18.2472C15.8476 18.2478 15.8531 18.2469 15.8584 18.2445C16.0066 18.1779 16.1542 18.1097 16.301 18.04C16.3815 18.0019 16.4503 17.9452 16.5284 17.8977C16.5332 17.8947 16.5372 17.891 16.5404 17.8864C16.5558 17.8641 16.5792 17.8696 16.5971 17.8617C16.6641 17.8324 16.724 17.7771 16.7677 17.7461C16.9374 17.6256 17.092 17.486 17.2464 17.3463C17.709 16.928 18.0492 16.4204 18.4015 15.912C18.4144 15.8934 18.4279 15.8704 18.4418 15.843C18.472 15.7836 18.5245 15.7066 18.5445 15.6717C18.6842 15.4287 18.8323 15.1823 18.9454 14.9278C19.0772 14.6312 19.1975 14.3298 19.3064 14.0238C19.3543 13.8893 19.4009 13.7289 19.4503 13.5816C19.4781 13.4987 19.5013 13.4149 19.5201 13.3301C19.5579 13.1597 19.6031 13.0008 19.6315 12.8212C19.6402 12.7653 19.6526 12.6938 19.6685 12.6066C19.7256 12.297 19.763 11.9793 19.7808 11.6538C19.7808 11.652 19.7806 11.6503 19.78 11.6486C19.7794 11.647 19.7785 11.6454 19.7773 11.6442C19.7761 11.6429 19.7747 11.6419 19.7731 11.6412C19.7715 11.6405 19.7698 11.6402 19.7681 11.6402C19.7625 11.64 19.7579 11.6415 19.7544 11.6446C19.8495 9.92856 19.4954 8.32392 18.6921 6.83064C17.9925 5.53028 16.9488 4.41756 15.7274 3.62748C13.9497 2.47712 11.8562 2.03271 9.74396 2.31894C7.99539 2.55596 6.34708 3.37446 5.05906 4.56856C3.30495 6.19484 2.28888 8.45912 2.23136 10.8698C2.18125 12.9693 2.7835 15.1105 4.18267 16.7018C4.76984 17.3696 5.46464 17.8705 6.26709 18.2043Z" fill="#22A849"/>
</g>
<defs>
<clipPath id="clip0_108_344">
<rect width="22" height="22" fill="white"/>
</clipPath>
</defs>
</svg>
